<svg width="200" height="260" viewBox="0 0 200 260" fill="none" xmlns="http://www.w3.org/2000/svg">
  <rect width="200" height="260" fill="#f8fafc"/>
  <rect x="0" y="0" width="200" height="50" fill="#0f172a"/>
  <rect x="15" y="12" width="100" height="10" rx="2" fill="#f1f5f9"/>
  <rect x="15" y="28" width="70" height="5" rx="1" fill="#64748b"/>
  <rect x="15" y="38" width="20" height="6" rx="3" fill="#3b82f6"/>
  <rect x="40" y="38" width="25" height="6" rx="3" fill="#3b82f6"/>
  <rect x="70" y="38" width="20" height="6" rx="3" fill="#3b82f6"/>
  <rect x="10" y="60" width="120" height="4" rx="1" fill="#94a3b8"/>
  <rect x="10" y="68" width="115" height="3" rx="1" fill="#cbd5e1"/>
  <rect x="10" y="80" width="50" height="5" rx="1" fill="#1e293b"/>
  <rect x="10" y="90" width="120" height="3" rx="1" fill="#cbd5e1"/>
  <rect x="10" y="97" width="118" height="3" rx="1" fill="#cbd5e1"/>
  <rect x="140" y="60" width="50" height="4" rx="1" fill="#94a3b8"/>
  <rect x="140" y="70" width="45" height="3" rx="1" fill="#cbd5e1"/>
  <rect x="140" y="78" width="40" height="3" rx="1" fill="#cbd5e1"/>
  <rect x="140" y="100" width="50" height="4" rx="1" fill="#94a3b8"/>
  <rect x="140" y="110" width="45" height="3" rx="1" fill="#cbd5e1"/>
  <text x="160" y="180" font-family="system-ui" font-size="32" font-weight="bold" fill="#94a3b8">M</text>
</svg>
