<svg width="200" height="260" viewBox="0 0 200 260" fill="none" xmlns="http://www.w3.org/2000/svg">
  <rect width="200" height="260" fill="#f0fdf4"/>
  <rect x="10" y="15" width="180" height="1" fill="#16a34a"/>
  <rect x="10" y="20" width="90" height="10" rx="1" fill="#14532d"/>
  <rect x="10" y="34" width="170" height="4" rx="1" fill="#166534"/>
  <rect x="10" y="42" width="50" height="3" rx="1" fill="#4ade80"/>
  <rect x="65" y="42" width="50" height="3" rx="1" fill="#4ade80"/>
  <rect x="120" y="42" width="50" height="3" rx="1" fill="#4ade80"/>
  <rect x="10" y="52" width="180" height="1" fill="#16a34a"/>
  <rect x="10" y="62" width="50" height="4" rx="1" fill="#14532d"/>
  <rect x="10" y="70" width="180" height="3" rx="1" fill="#d1fae5"/>
  <rect x="10" y="77" width="175" height="3" rx="1" fill="#d1fae5"/>
  <rect x="10" y="90" width="50" height="4" rx="1" fill="#14532d"/>
  <rect x="10" y="98" width="180" height="3" rx="1" fill="#d1fae5"/>
  <rect x="10" y="105" width="175" height="3" rx="1" fill="#d1fae5"/>
  <rect x="10" y="112" width="170" height="3" rx="1" fill="#d1fae5"/>
  <rect x="10" y="125" width="50" height="4" rx="1" fill="#14532d"/>
  <rect x="10" y="133" width="180" height="3" rx="1" fill="#d1fae5"/>
  <text x="160" y="190" font-family="Georgia, serif" font-size="32" font-weight="bold" fill="#86efac">A</text>
</svg>
