<svg width="200" height="260" viewBox="0 0 200 260" fill="none" xmlns="http://www.w3.org/2000/svg">
  <rect width="200" height="260" fill="#fafaf9"/>
  <rect x="10" y="15" width="180" height="30" fill="none" stroke="#d4d4d4" stroke-width="1"/>
  <rect x="20" y="22" width="80" height="8" rx="1" fill="#292524"/>
  <rect x="20" y="34" width="60" height="4" rx="1" fill="#78716c"/>
  <rect x="110" y="24" width="70" height="3" rx="1" fill="#a8a29e"/>
  <rect x="110" y="31" width="70" height="3" rx="1" fill="#a8a29e"/>
  <rect x="110" y="38" width="50" height="3" rx="1" fill="#a8a29e"/>
  <rect x="10" y="55" width="130" height="4" rx="1" fill="#57534e"/>
  <rect x="10" y="63" width="125" height="3" rx="1" fill="#d6d3d1"/>
  <rect x="10" y="70" width="120" height="3" rx="1" fill="#d6d3d1"/>
  <rect x="10" y="85" width="50" height="4" rx="1" fill="#292524"/>
  <rect x="10" y="93" width="125" height="3" rx="1" fill="#d6d3d1"/>
  <rect x="10" y="100" width="130" height="3" rx="1" fill="#d6d3d1"/>
  <rect x="10" y="107" width="120" height="3" rx="1" fill="#d6d3d1"/>
  <rect x="150" y="85" width="40" height="4" rx="1" fill="#78716c"/>
  <rect x="150" y="93" width="35" height="3" rx="1" fill="#a8a29e"/>
  <rect x="150" y="100" width="38" height="3" rx="1" fill="#a8a29e"/>
  <text x="160" y="180" font-family="Georgia, serif" font-size="32" font-weight="bold" fill="#a8a29e">F</text>
</svg>
