<svg width="200" height="260" viewBox="0 0 200 260" fill="none" xmlns="http://www.w3.org/2000/svg">
  <rect width="200" height="260" fill="#f8fafc"/>
  <rect x="140" y="0" width="60" height="260" fill="#334155"/>
  <rect x="10" y="15" width="80" height="8" rx="2" fill="#1e293b"/>
  <rect x="10" y="28" width="60" height="4" rx="1" fill="#94a3b8"/>
  <rect x="10" y="45" width="120" height="3" rx="1" fill="#cbd5e1"/>
  <rect x="10" y="52" width="115" height="3" rx="1" fill="#cbd5e1"/>
  <rect x="10" y="59" width="100" height="3" rx="1" fill="#cbd5e1"/>
  <rect x="10" y="75" width="50" height="5" rx="1" fill="#475569"/>
  <rect x="10" y="85" width="120" height="3" rx="1" fill="#cbd5e1"/>
  <rect x="10" y="92" width="118" height="3" rx="1" fill="#cbd5e1"/>
  <rect x="10" y="99" width="110" height="3" rx="1" fill="#cbd5e1"/>
  <rect x="10" y="115" width="50" height="5" rx="1" fill="#475569"/>
  <rect x="10" y="125" width="120" height="3" rx="1" fill="#cbd5e1"/>
  <rect x="10" y="132" width="115" height="3" rx="1" fill="#cbd5e1"/>
  <rect x="150" y="20" width="40" height="4" rx="1" fill="#94a3b8"/>
  <rect x="150" y="30" width="35" height="3" rx="1" fill="#64748b"/>
  <rect x="150" y="38" width="38" height="3" rx="1" fill="#64748b"/>
  <rect x="150" y="60" width="40" height="4" rx="1" fill="#94a3b8"/>
  <rect x="150" y="70" width="30" height="3" rx="1" fill="#64748b"/>
  <rect x="150" y="78" width="35" height="3" rx="1" fill="#64748b"/>
  <text x="160" y="140" font-family="system-ui" font-size="32" font-weight="bold" fill="#64748b">C</text>
</svg>
